<svg width="1200" height="800" viewBox="0 0 1200 800" fill="none" xmlns="http://www.w3.org/2000/svg">
  <defs>
    <linearGradient id="bg" x1="112" y1="0" x2="1094" y2="800" gradientUnits="userSpaceOnUse">
      <stop stop-color="#FBF8F2"/>
      <stop offset="1" stop-color="#EFE7DA"/>
    </linearGradient>
    <linearGradient id="panel" x1="220" y1="150" x2="960" y2="650" gradientUnits="userSpaceOnUse">
      <stop stop-color="#FFFDF8"/>
      <stop offset="1" stop-color="#F4EDE1"/>
    </linearGradient>
    <linearGradient id="accent" x1="344" y1="208" x2="560" y2="428" gradientUnits="userSpaceOnUse">
      <stop stop-color="#C6D4E7"/>
      <stop offset="1" stop-color="#8FA8C7"/>
    </linearGradient>
  </defs>
  <rect width="1200" height="800" fill="url(#bg)"/>
  <circle cx="978" cy="108" r="214" fill="#E7D8C2" fill-opacity="0.35"/>
  <circle cx="172" cy="118" r="178" fill="#D8E3EF" fill-opacity="0.28"/>
  <rect x="150" y="132" width="900" height="560" rx="42" fill="url(#panel)" stroke="#DDD2C3"/>
  <rect x="214" y="188" width="332" height="242" rx="28" fill="#E8E1D4" stroke="#D0C5B7"/>
  <rect x="582" y="188" width="372" height="24" rx="12" fill="#C7CED8"/>
  <rect x="582" y="232" width="296" height="18" rx="9" fill="#D9DEE6"/>
  <rect x="582" y="270" width="344" height="18" rx="9" fill="#D9DEE6"/>
  <rect x="582" y="308" width="316" height="18" rx="9" fill="#D9DEE6"/>
  <rect x="582" y="360" width="214" height="16" rx="8" fill="#D4C8B7"/>
  <rect x="582" y="392" width="262" height="16" rx="8" fill="#E1D7C9"/>
  <rect x="582" y="424" width="184" height="16" rx="8" fill="#E1D7C9"/>
  <circle cx="350" cy="284" r="42" fill="url(#accent)"/>
  <path d="M278 384L332 314L390 362L456 272L500 384H278Z" fill="#D6C4B1"/>
  <rect x="220" y="470" width="122" height="122" rx="22" fill="#F0E8DB" stroke="#D5C8B8"/>
  <rect x="368" y="470" width="122" height="122" rx="22" fill="#F0E8DB" stroke="#D5C8B8"/>
  <rect x="516" y="470" width="122" height="122" rx="22" fill="#F0E8DB" stroke="#D5C8B8"/>
  <rect x="664" y="470" width="122" height="122" rx="22" fill="#F0E8DB" stroke="#D5C8B8"/>
  <rect x="812" y="470" width="122" height="122" rx="22" fill="#F0E8DB" stroke="#D5C8B8"/>
  <rect x="244" y="500" width="74" height="12" rx="6" fill="#C7CED8"/>
  <rect x="392" y="500" width="74" height="12" rx="6" fill="#C7CED8"/>
  <rect x="540" y="500" width="74" height="12" rx="6" fill="#C7CED8"/>
  <rect x="688" y="500" width="74" height="12" rx="6" fill="#C7CED8"/>
  <rect x="836" y="500" width="74" height="12" rx="6" fill="#C7CED8"/>
</svg>
